<svg width="46" height="46" viewBox="0 0 46 46" fill="none" xmlns="http://www.w3.org/2000/svg">
<circle cx="23" cy="23" r="23" fill="#FE7888"/>
<path d="M28.7928 11H16.2614C12.8089 11 10 13.6627 10 16.9355V28.9119C10 32.1845 12.8089 34.8474 16.2614 34.8474H28.7928C32.2453 34.8474 35.0541 32.1844 35.0541 28.9119V16.9354C35.0541 13.6627 32.2453 11 28.7928 11V11ZM32.7352 28.9118C32.7352 30.9723 30.9667 32.649 28.7928 32.649H16.2614C14.0875 32.649 12.3191 30.9723 12.3191 28.9118V21.1767H17.2728C16.9112 21.9043 16.7078 22.716 16.7078 23.5719C16.7078 26.6809 19.3758 29.2098 22.6553 29.2098C25.9348 29.2098 28.6028 26.6809 28.6028 23.5719C28.6028 22.716 28.3995 21.9043 28.0377 21.1767H32.7352V28.9118H32.7352ZM20.1863 23.572C20.1863 22.2816 21.2939 21.2316 22.6553 21.2316C24.0168 21.2316 25.1243 22.2816 25.1243 23.572C25.1243 24.8626 24.0168 25.9124 22.6553 25.9124C21.2939 25.9123 20.1863 24.8626 20.1863 23.572ZM32.7352 18.9784H26.0972C25.1247 18.322 23.9374 17.9341 22.6553 17.9341C21.3733 17.9341 20.1858 18.322 19.2136 18.9784H12.3191V16.9355C12.3191 14.8748 14.0875 13.1983 16.2614 13.1983H28.7928C30.9667 13.1983 32.7352 14.8748 32.7352 16.9355V18.9784H32.7352H32.7352ZM30.2223 14.5316H28.0726C27.6899 14.5316 27.3769 14.8284 27.3769 15.1911V17.2289C27.3769 17.5916 27.6899 17.8884 28.0726 17.8884H30.2223C30.605 17.8884 30.918 17.5916 30.918 17.2289V15.1911C30.918 14.8284 30.605 14.5316 30.2223 14.5316Z" fill="white"/>
</svg>
