<svg width="46" height="46" viewBox="0 0 46 46" fill="none" xmlns="http://www.w3.org/2000/svg">
<circle cx="23" cy="23" r="23" fill="#FE7888"/>
<path d="M11.0001 19.6929C11.0001 18.4041 11.2286 17.1866 11.6788 16.0502C12.109 14.9465 12.7481 13.9334 13.5621 13.0651C14.3744 12.2082 15.304 11.4672 16.324 10.8636C17.3705 10.2393 18.5034 9.76838 19.6873 9.46549C20.8855 9.15526 22.1193 8.99881 23.3581 9.00001C25.2716 9.00001 27.0524 9.39923 28.7038 10.1944C30.3337 10.975 31.721 12.173 32.7207 13.6631C33.7522 15.1789 34.2646 16.8934 34.2646 18.805C34.2646 19.9513 34.1504 21.0728 33.9168 22.1694C33.6875 23.2654 33.3231 24.3297 32.8316 25.3384C32.3631 26.3148 31.7505 27.2175 31.0138 28.017C30.2734 28.8038 29.3767 29.4319 28.3796 29.8624C27.297 30.3302 26.1259 30.5656 24.944 30.5531C24.1225 30.5531 23.3027 30.3626 22.4929 29.98C21.6832 29.599 21.1019 29.0755 20.7524 28.4046C20.6298 28.8701 20.4618 29.5427 20.2384 30.4223C20.0233 31.3002 19.8788 31.8668 19.815 32.1235C19.7478 32.3786 19.6235 32.8044 19.442 33.3941C19.319 33.8303 19.1612 34.2563 18.97 34.668L18.3921 35.7845C18.1421 36.2636 17.8627 36.7272 17.5554 37.1726C17.2513 37.6066 16.875 38.1251 16.4265 38.7215L16.1762 38.8093L16.0098 38.6304C15.8301 36.7535 15.7377 35.6304 15.7377 35.2593C15.7377 34.1611 15.8704 32.9286 16.1325 31.5603C16.3895 30.1937 16.7961 28.4758 17.3421 26.4102C17.8881 24.3461 18.2005 23.1319 18.2845 22.7724C17.8998 21.9988 17.7049 20.9883 17.7049 19.7459C17.7049 18.7537 18.0191 17.8243 18.6491 16.9497C19.2808 16.0784 20.0788 15.6427 21.0464 15.6427C21.7873 15.6427 22.3619 15.8846 22.7735 16.3699C23.1867 16.8536 23.3883 17.4632 23.3883 18.207C23.3883 18.9955 23.1229 20.1369 22.5887 21.6294C22.0544 23.1236 21.789 24.2384 21.789 24.9789C21.789 25.7293 22.0612 26.3571 22.6055 26.8491C23.1426 27.3414 23.853 27.6081 24.5862 27.5929C25.2514 27.5929 25.868 27.4438 26.4409 27.144C27.0048 26.8529 27.4929 26.4374 27.8672 25.9298C28.6824 24.827 29.2635 23.5734 29.5757 22.244C29.737 21.5449 29.8613 20.8806 29.9386 20.2561C30.0209 19.6283 30.0562 19.0353 30.0562 18.4721C30.0562 16.4064 29.3909 14.7962 28.0688 13.6433C26.7399 12.4903 25.0095 11.9172 22.881 11.9172C20.4601 11.9172 18.4357 12.6891 16.8145 14.238C15.1917 15.7818 14.3752 17.7448 14.3752 20.1253C14.3752 20.6504 14.4558 21.1573 14.6087 21.6476C14.7582 22.1363 14.9212 22.5256 15.0976 22.8138C15.2723 23.0971 15.437 23.3737 15.5865 23.6288C15.7377 23.8839 15.8166 24.0662 15.8166 24.1755C15.8166 24.5101 15.7276 24.9458 15.5478 25.4841C15.3614 26.0225 15.1413 26.2909 14.8758 26.2909C14.8506 26.2909 14.7465 26.2727 14.565 26.2346C13.9367 26.0496 13.3692 25.7038 12.9203 25.2324C12.444 24.7438 12.068 24.1689 11.8132 23.5394C11.5592 22.9121 11.3613 22.2642 11.2219 21.6029C11.0712 20.9772 10.9968 20.336 11.0001 19.6929Z" fill="white"/>
</svg>
