<svg width="46" height="46" viewBox="0 0 46 46" fill="none" xmlns="http://www.w3.org/2000/svg">
<ellipse cx="23" cy="22.5106" rx="23" ry="22.5106" fill="#FE7888"/>
<path d="M20.6667 32.25C23.625 32.2495 26.498 31.3829 28.8284 29.7883L36.155 36.1992L38.5117 34.1371L31.185 27.7262C33.0084 25.687 33.9993 23.1725 34 20.5833C34 14.1506 28.0184 8.91666 20.6667 8.91666C13.315 8.91666 7.33337 14.1506 7.33337 20.5833C7.33337 27.016 13.315 32.25 20.6667 32.25ZM20.6667 11.8333C26.1817 11.8333 30.6667 15.7577 30.6667 20.5833C30.6667 25.4089 26.1817 29.3333 20.6667 29.3333C15.1517 29.3333 10.6667 25.4089 10.6667 20.5833C10.6667 15.7577 15.1517 11.8333 20.6667 11.8333Z" fill="white"/>
<path d="M23.02 18.5212C23.6517 19.0754 24 19.8075 24 20.5833H27.3333C27.3348 19.8169 27.1626 19.0577 26.8268 18.3499C26.4909 17.642 25.9981 16.9994 25.3767 16.4592C22.8533 14.2542 18.4783 14.2542 15.9567 16.4592L18.31 18.5242C19.5767 17.4187 21.76 17.4217 23.02 18.5212Z" fill="white"/>
</svg>
