<svg width="46" height="46" viewBox="0 0 46 46" fill="none" xmlns="http://www.w3.org/2000/svg">
<circle cx="23" cy="23" r="23" fill="#FE7888"/>
<path d="M29.5705 29.1H19.9866C19.6316 29.1 19.4541 28.9296 19.4541 28.4186V23.3085H29.5705C31.5227 23.3085 33.2975 21.7754 33.2975 19.7313C33.2975 17.6873 31.5227 16.1542 29.5705 16.1542H19.4541V12.5771C19.4541 10.533 17.6793 9 15.5496 9C13.5973 9 12 10.533 12 12.5771V28.2483C12 32.8474 14.6622 36.0839 20.1641 36.2542H29.7479C31.7002 36.2542 33.475 34.5508 33.475 32.6771C33.2975 30.633 31.5227 29.1 29.5705 29.1Z" fill="white"/>
</svg>
